<svg xmlns="http://www.w3.org/2000/svg" xmlns:xlink="http://www.w3.org/1999/xlink" version="1.1" width="432pt" height="216pt" viewBox="0 0 432 216">
<defs>
<clipPath id="clip_0">
<path transform="matrix(1,0,0,-1,0,216)" d="M0 216H432V0H0Z"/>
</clipPath>
</defs>
<g id="layer_1" data-name="">
<g clip-path="url(#clip_0)">
<path transform="matrix(1,0,0,-1,148.9077,151.3255)" d="M0 0C.16-2.353 .237-3.526 .385-5.867-1.093-6.095-1.831-6.21-3.304-6.442-3.768-5.369-4.001-4.831-4.47-3.755-5.531-3.543-6.806-3.523-8.25-3.755-10.293-4.085-12.184-5.069-12.032-6.593-11.889-8.024-9.794-8.357-6.662-8.9-2.538-9.612 1.374-10.445 1.381-14.65 1.39-19.458-3.805-22.541-8.354-23.207-11.964-23.739-14.462-23.636-17.036-23.22-17.267-20.882-17.385-19.71-17.627-17.357-16.15-17.098-15.41-16.969-13.926-16.712-13.479-17.75-13.257-18.269-12.816-19.304-11.819-19.476-10.467-19.526-9.136-19.3-7.149-18.965-5.229-17.991-5.335-16.358-5.421-15.034-6.546-14.598-10.606-13.826-15.092-12.969-18.024-11.908-18.474-8.133-19.004-3.67-14.467-.942-9.226-.005-5.657 .629-2.663 .422 0 0" fill="#092041"/>
<path transform="matrix(1,0,0,-1,170.6964,153.477)" d="M0 0C-1.373-.21-2.06-.316-3.433-.53-3.79 .454-3.968 .945-4.323 1.931-6.951 1.519-8.265 1.308-10.895 .879-10.816-1.165-10.776-2.185-10.694-4.222-8.311-3.834-7.12-3.644-4.739-3.269-4.669-4.883-4.634-5.69-4.562-7.3-6.949-7.676-8.143-7.867-10.532-8.254-10.449-10.31-10.406-11.337-10.321-13.386-7.567-12.943-6.191-12.725-3.441-12.295-3.147-11.192-3-10.64-2.707-9.535-1.326-9.32-.636-9.214 .744-9.003 .871-11.662 .936-12.99 1.067-15.639-5.538-16.689-12.15-17.742-18.77-18.795-18.807-17.799-18.825-17.301-18.862-16.303-17.96-15.783-17.51-15.522-16.611-15.002-16.808-9.861-16.994-4.717-17.169 .431-18.085 .639-18.543 .743-19.458 .949-19.492 1.972-19.509 2.483-19.542 3.507-13.122 4.557-6.709 5.599-.301 6.63-.183 3.973-.123 2.647 0 0" fill="#092041"/>
<path transform="matrix(1,0,0,-1,181.4219,149.3104)" d="M0 0C.135-2.618 .203-3.925 .342-6.536 1.548-6.364 2.151-6.28 3.356-6.113 5.911-5.759 7.116-4.356 7-2.287 6.885-.218 5.656 .777 3.145 .435 1.887 .263 1.258 .176 0 0M13.302-1.472C13.462-4.266 12.219-6.632 9.593-8.283 10.921-10.241 11.589-11.22 12.929-13.175 14.131-13.376 14.733-13.478 15.937-13.683 15.999-14.676 16.03-15.173 16.091-16.166 12.886-16.579 11.282-16.792 8.072-17.231 6.332-14.359 5.468-12.921 3.751-10.04 3.326-10.13 2.864-10.195 2.438-10.256 1.684-10.361 1.308-10.415 .554-10.522 .646-12.239 .693-13.097 .786-14.81 1.718-15.049 2.184-15.169 3.116-15.41 3.172-16.407 3.2-16.906 3.256-17.902-1.094-18.519-3.27-18.839-7.628-19.497-7.679-18.499-7.704-18-7.754-17-6.858-16.517-6.41-16.276-5.516-15.794-5.783-10.637-6.039-5.475-6.284-.309-7.206-.081-7.666 .032-8.587 .258-8.634 1.279-8.658 1.79-8.705 2.812-3.908 3.527-1.51 3.868 3.284 4.513 7.846 5.359 13.025 3.364 13.302-1.472" fill="#092041"/>
<path transform="matrix(1,0,0,-1,218.8262,140.99991)" d="M0 0C.069-.996 .103-1.494 .172-2.49-.623-2.926-1.021-3.145-1.817-3.585-3.68-9.976-5.552-16.382-7.436-22.803-9.9-23.08-11.132-23.223-13.598-23.518-16.358-17.613-19.09-11.679-21.794-5.713-22.636-5.442-23.057-5.308-23.898-5.038-23.958-4.026-23.987-3.519-24.046-2.507-19.81-1.994-17.692-1.751-13.457-1.299-13.394-2.305-13.362-2.808-13.298-3.813-14.024-4.262-14.387-4.487-15.113-4.938-13.677-8.767-12.229-12.581-10.77-16.384-10.54-17.257-10.425-17.693-10.195-18.565-10.055-17.651-9.986-17.194-9.846-16.281-8.91-12.209-7.979-8.145-7.052-4.087-7.826-3.795-8.213-3.65-8.986-3.36-9.052-2.357-9.084-1.856-9.15-.853-5.49-.487-3.66-.315 0 0" fill="#092041"/>
<path transform="matrix(1,0,0,-1,231.1977,142.5085)" d="M0 0C-.879-.422-1.319-.634-2.199-1.061-1.835-6.065-1.466-11.065-1.093-16.062-.156-16.347 .313-16.49 1.25-16.777 1.323-17.752 1.36-18.24 1.434-19.215-2.905-19.573-5.075-19.771-9.418-20.199-9.489-19.216-9.525-18.726-9.595-17.744-8.71-17.292-8.268-17.067-7.384-16.618-7.75-11.598-8.109-6.574-8.463-1.546-9.395-1.258-9.86-1.114-10.791-.828-10.86 .154-10.894 .646-10.962 1.628-6.65 1.989-4.493 2.151-.18 2.433-.108 1.46-.072 .974 0 0" fill="#092041"/>
<path transform="matrix(1,0,0,-1,252.4388,140.2491)" d="M0 0C.197-2.423 .296-3.635 .494-6.063-1.08-6.114-1.867-6.144-3.441-6.208-3.942-4.947-4.192-4.315-4.691-3.053-5.894-2.685-7.041-2.555-8.209-2.609-11.535-2.764-13.901-4.854-13.513-9.846-13.18-14.121-10.811-16.092-7.439-15.892-4.811-15.736-2.57-14.755-.86-13.461 .268-14.728 .834-15.363 1.965-16.63-.549-18.962-4.281-20.337-7.885-20.593-14.252-21.051-20.016-15.982-20.141-10.338-20.262-4.824-15.608 1.52-9.356 1.573-6.188 1.598-3.013 1.219 0 0" fill="#092041"/>
<path transform="matrix(1,0,0,-1,274.5892,144.37021)" d="M0 0C-1.396-.009-2.095-.016-3.491-.037-3.878 .935-4.073 1.42-4.461 2.39-7.141 2.346-8.481 2.312-11.159 2.225-11.01 .299-10.936-.666-10.786-2.598-8.375-2.521-7.168-2.49-4.755-2.446-4.644-3.98-4.588-4.748-4.476-6.285-6.883-6.328-8.087-6.358-10.492-6.432-10.344-8.394-10.269-9.376-10.12-11.344-7.365-11.261-5.988-11.229-3.232-11.186-2.96-10.172-2.824-9.665-2.552-8.653-1.164-8.634-.47-8.627 .919-8.618 1.091-11.168 1.177-12.445 1.35-15.005-5.243-15.124-11.821-15.295-18.402-15.513-18.48-14.554-18.519-14.075-18.597-13.116-17.713-12.72-17.272-12.523-16.388-12.131-16.781-7.24-17.176-2.352-17.573 2.532-18.523 2.829-18.997 2.976-19.946 3.269-20.026 4.229-20.066 4.709-20.147 5.668-13.576 5.938-7.021 6.134-.442 6.251-.265 3.756-.176 2.506 0 0" fill="#092041"/>
<path transform="matrix(1,0,0,-1,296.1932,153.2085)" d="M0 0C-.127 4.348-3.685 5.622-7.67 6.963-10.698 7.958-12.739 8.567-12.817 9.933-12.901 11.385-11.016 12.051-9.021 12.073-7.617 12.088-6.388 11.882-5.376 11.523-4.96 10.429-4.753 9.881-4.341 8.783-2.916 8.771-2.204 8.761-.78 8.732-.857 11.009-.897 12.144-.976 14.407-3.495 15.213-6.347 15.843-9.805 15.717-14.933 15.532-19.526 13.559-19.225 9.346-18.975 5.768-16.091 4.374-11.695 2.874-7.724 1.48-6.637 .861-6.583-.445-6.517-2.055-8.431-2.657-10.406-2.639-11.735-2.626-13.078-2.351-14.067-2.02-14.473-.955-14.676-.422-15.085 .638-16.573 .626-17.317 .617-18.805 .592-18.656-1.672-18.581-2.807-18.433-5.085-15.849-5.914-13.424-6.519-9.72-6.587-3.838-6.692 .123-4.389 0 0" fill="#092041"/>
<path transform="matrix(1,0,0,-1,336.3333,98.5994)" d="M0 0C-2.764-4.646-5.536-8.427-11.023-9.667-12.789-10.066-16.943-10.774-16.941-7.584-16.942-3.411-13.244 4.787-5.642 17.195-2.808 17.496 2.228 17.685 9.461 18.039ZM-30.97 .838C-33.274-3.982-36.616-8.741-41.54-11.2-44.118-12.487-46.903-13.029-49.834-12.863-60.729-12.247-58.774-2.876-58.774-2.876-56.52-4.251-51.609-4.185-49.984-4.073-40.646-3.4-30.332 5.478-28.334 16.112-27.079 16.199-23.126 16.373-22.738 16.406-26.698 9.257-28.793 5.392-30.97 .838M-57.129 11.412C-55.433 14.816-53.074 18.099-49.811 20.2-49.291 20.535-48.549 20.952-47.723 21.311-45.395 22.324-42.401 22.875-41.849 19.817-41.533 18.063-42.3 16.116-43.037 14.616-44.559 11.519-46.711 8.934-49.18 7.138-51.417 5.511-54.572 3.683-56.814 5.283-58.752 6.666-57.91 9.844-57.129 11.412M-93.634-3.943C-93.689-8.755-96.7-16.744-104.504-17.692-105.576-17.822-106.901-17.626-108.1-17.156-101.333-13.288-105.854-7.142-105.854-7.142-102.778-3.658-97.412 2.988-94.172 7.396-93.89 4.725-93.582 .347-93.634-3.943M-144.071-20.373C-145.118-20.487-146.611-20.23-147.673-19.82-140.646-14.769-145.414-8.96-145.414-8.96-142.699-5.629-139.002-.499-136.205 3.74-135.679 1.166-134.968-3.06-134.619-7.193-134.232-11.832-136.461-19.529-144.071-20.373M-178.505-3.005C-181.031-9.61-184.401-16.429-189.341-21.487-190.664-22.841-192.152-24.208-193.967-24.924-194.77-25.241-195.887-25.58-196.773-25.299-197.707-25.004-198.361-24.08-198.803-23.255-199.955-21.104-199.782-18.851-199.428-16.602-199.117-14.63-198.595-12.705-197.942-10.837-196.572-6.916-194.639-3.213-192.354 .211-190.357 3.205-188.07 6.083-185.331 8.424-183.903 9.645-182.097 11.069-180.098 11.207-172.95 11.694-177.374-.047-178.505-3.005M-254.584-43.345C-258.85-43.422-261.764-38.633-261.235-35.066-259.613-24.126-248.354-27.771-248.354-27.771-251.815-12.736-266.29-20.338-266.29-20.338-265.896-18.303-264.258-14.931-261.352-12.033-256.347-7.042-247.291-3.774-240.287-7.559-236.003-9.874-232.941-14.703-232.941-19.496-232.942-30.755-244.068-43.163-254.584-43.345M-253.72 9.158C-253.351 9.933-252.967 10.699-252.572 11.46-252.114 12.345-251.642 13.221-251.158 14.091-250.62 15.06-250.068 16.021-249.504 16.974-248.895 18.002-248.273 19.021-247.637 20.032-246.968 21.095-246.284 22.148-245.584 23.19-244.864 24.262-244.127 25.323-243.373 26.371-242.611 27.428-241.831 28.472-241.03 29.499-240.236 30.517-239.422 31.518-238.583 32.499-237.767 33.453-236.927 34.387-236.059 35.293-235.23 36.16-234.374 37.001-233.485 37.807-232.652 38.562-231.789 39.287-230.888 39.963-230.059 40.586-229.198 41.169-228.296 41.686-227.478 42.155-226.626 42.572-225.735 42.9-225.057 43.149-224.363 43.364-223.644 43.49-222.989 43.605-222.274 43.693-221.616 43.448-221.025 43.229-220.539 42.754-220.231 42.208-219.825 41.487-219.7 40.65-219.7 39.853-219.702 27.488-242.285 5.061-255.288 4.977-255.128 6.16-254.018 8.531-253.72 9.158M44.572-4.878C45.495-2.549 43.065-.046 40.666-.798 36.478-2.11 32.502-4.214 28.502-5.994 26.305-6.972 13.226-12.149 14.687-6.662 17.921 5.485 26.833 18.745 26.833 18.745L55.879 20.714C55.965 20.72 56.05 20.735 56.13 20.763 59.665 21.034 61.526 29.649 56.974 30.048 55.568 30.172 46.35 29.98 34.28 29.655 38.367 35.418 47.611 48.022 48.032 48.657 48.451 49.288 48.973 49.855 49.019 50.664 49.071 51.558 48.577 52.402 47.89 52.986 46.649 54.04 44.881 54.303 43.359 54.392 43.359 54.392 38.447 54.423 35.116 54.255 33.663 54.182 32.371 53.429 31.628 52.216 28.585 47.249 20.223 33.612 17.494 29.177 11.895 29.011 6.176 28.835 .68 28.663L13.638 47.43C14.195 48.205 14.763 49.005 14.973 49.949 15.486 52.258 13.505 53.556 11.479 54.064 10.581 54.288 9.658 54.327 8.754 54.245L1.353 54.161C-.061 54.033-1.298 53.259-2.004 52.059-5.048 46.879-13.565 32.19-15.919 28.135-22.797 27.913-28.346 27.73-31.423 27.627-34.339 30.805-39.064 33.167-45.489 32.821-60.428 32.041-75.635 13.869-75.633-4.64-75.633-4.898-75.626-5.155-75.614-5.411-75.475-8.224-76.503-10.925-78.643-12.628-79.514-13.321-80.575-13.999-81.854-14.572-80.034-11.343-79.059-7.957-78.897-4.298-78.681 .552-80.057 4.802-81.295 8.547-82.21 11.266-83.006 13.605-82.942 15.538-82.805 19.474-81.304 21.41-79.408 23.412-78.067 24.824-76.906 26.042-76.843 27.382-76.734 29.67-79.393 30.936-83.158 30.382-88.201 29.621-92.569 24.169-108.9 4.243-111.051 1.541-113.556-1.549-116.072-4.765-116.072-4.765-118.625-5.124-120.114-6.411-120.54-2.204-122.115 1.526-123.552 4.838-124.706 7.456-125.71 9.715-125.822 11.579-126.049 15.377-123.957 17.781-122.253 19.719-121.051 21.085-120.008 22.262-120.065 23.558-120.168 25.768-122.919 26.976-126.615 26.432-131.56 25.703-136.167 19.872-150.506 .786-152.374-1.795-153.479-3.326-155.66-6.387-159.966-7.268-164.949-11.884-164.054-17.364-163.926-18.145-163.62-18.96-163.255-19.82-163.064-20.27-164.759-21.666-165.046-21.838-167.364-23.227-169.368-20.7-169.441-18.528-169.491-17.052-169.183-15.573-168.837-14.169-167.082-7.065-163.552-.418-160.126 5.909-158.698 8.546-157.218 11.152-155.7 13.734-154.51 15.758-153.234 17.731-152 19.727-151.886 19.912-151.77 20.1-151.687 20.301-151.641 20.412-151.605 20.527-151.585 20.647-151.333 22.13-153.69 22.746-154.752 22.664-162.025 22.109-165.47 21.762-167.08 21.566-167.914 21.465-168.608 20.936-168.917 20.166-169.502 18.709-170.116 17.161-170.68 15.775-172.751 20.012-176.835 22.38-181.749 22.067-198.125 21.025-209.48 7.966-214.134-7.029-215.76-3.572-218.515-.662-222.017 1.105-224.945 2.582-228.441 3.742-232.489 4.582-216.054 10.28-200.326 23.636-200.325 38.73-200.324 47.813-208.362 57.777-220.304 57.387-232.103 57.021-239.913 52.382-248.35 40.629-247.759 50.602-253.821 54.927-263.976 55.116-285.586 55.672-294.823 40.98-296.294 30.641-297.226 24.097-291.701 17.923-285.067 18.282-284.868 18.293-284.666 18.308-284.46 18.328-284.46 18.328-281.349 39.53-268.692 40.125-265.911 40.256-263.794 37.413-264.79 34.862-270.461 20.357-289.172-26.762-299.568-43.928-301.227-46.669-300.09-50.359-297.108-51.914-295.015-53.006-292.616-53.941-290.457-54.005-287.935-54.079-285.793-53.988-283.68-53.779-281.777-53.591-280.143-52.476-279.293-50.799-278.648-49.523-277.71-47.628-276.353-44.812-272.758-50.176-265.596-55.442-255.2-55.237-243.04-55.001-232.171-49.777-223.319-42.231-219.116-38.647-216.416-34.64-214.732-30.622-214.194-31.855-213.541-32.995-212.787-34.027-208.495-39.902-200.929-42.275-192.561-38.304-190.099-37.136-187.838-35.604-185.714-33.928-185.373-33.659-180.944-30.285-181.228-29.853-180.873-30.393-180.313-30.931-179.735-31.424-174.685-35.731-167.377-33.833-162.478-31.116-160.987-30.289-159.563-29.355-158.157-28.401-158.005-28.297-157.142-27.651-156.746-27.442L-156.561-27.333-156.326-27.502C-152.231-30.087-146.199-32.172-139.168-31.469-128.672-30.366-122.663-27.206-118.854-24.451-118.428-24.796-117.999-25.138-117.544-25.442-117.544-25.442-102.187-36.96-70.322-20.126-70.322-20.126-58.194-31.218-33.895-18.109-33.484-18.608-33.033-19.092-32.532-19.542-29.938-21.873-26.652-23.035-23.274-22.835-14.68-22.313-6.285-17.02-2.375-14.234 7.442-33.541 34.426-13.83 41.508-7.89 42.957-6.674 44.134-5.985 44.572-4.878" fill="#2354a6"/>
<path transform="matrix(1,0,0,-1,161.2057,53.777498)" d="M0 0C-.204 .71-.306 1.065-.511 1.775-.775 2.853-.907 3.392-1.171 4.471-1.435 3.416-1.567 2.889-1.831 1.835-2.016 1.12-2.109 .763-2.293 .049-1.376 .023-.917 .013 0 0M5.018-3.694C5.018-4.196 5.018-4.447 5.018-4.95 2.924-4.975 1.878-4.975-.216-4.942-.216-4.44-.216-4.189-.215-3.686 .227-3.507 .449-3.417 .891-3.236 .746-2.726 .673-2.471 .528-1.96-.812-1.945-1.482-1.931-2.822-1.889-2.961-2.393-3.03-2.645-3.169-3.149-2.727-3.35-2.506-3.449-2.064-3.647V-4.903C-3.893-4.854-4.807-4.818-6.636-4.714-6.636-4.211-6.636-3.96-6.635-3.457-6.246-3.294-6.051-3.212-5.661-3.045-4.558-.012-4.007 1.51-2.905 4.562-3.229 4.747-3.391 4.839-3.715 5.025-3.715 5.54-3.715 5.797-3.715 6.312-1.952 6.247-1.07 6.227 .693 6.209 2.02 2.418 2.683 .529 4.01-3.239 4.413-3.422 4.615-3.513 5.018-3.694" fill="#092041"/>
<path transform="matrix(1,0,0,-1,170.6157,56.970796)" d="M0 0C.389-.168 .584-.251 .973-.418V-1.627C-.936-1.695-1.89-1.72-3.798-1.749-3.798-1.265-3.798-1.023-3.798-.539-3.402-.353-3.204-.26-2.808-.072-2.808 3.06-2.808 4.625-2.808 7.756-3.197 7.916-3.392 7.997-3.781 8.158-3.781 8.661-3.781 8.912-3.781 9.415-2.269 9.437-1.512 9.456 0 9.503 0 5.702 0 3.802 0 0" fill="#092041"/>
<path transform="matrix(1,0,0,-1,186.1308,49.569597)" d="M0 0V-1.241C-.343-1.439-.515-1.538-.858-1.736-1.591-4.399-1.957-5.73-2.69-8.39-3.911-8.473-4.522-8.513-5.744-8.589-6.318-6.411-6.605-5.321-7.179-3.141-7.754-5.389-8.041-6.512-8.616-8.758-9.798-8.823-10.389-8.853-11.571-8.907-12.311-6.33-12.68-5.041-13.42-2.459-13.769-2.299-13.944-2.219-14.294-2.058V-.817C-12.492-.752-11.591-.711-9.789-.618V-1.859C-10.079-2.041-10.224-2.132-10.515-2.314-10.251-3.591-10.119-4.23-9.855-5.506-9.795-5.918-9.765-6.124-9.705-6.536-9.626-6.117-9.586-5.907-9.507-5.488-9.025-3.515-8.784-2.528-8.301-.554-7.133-.489-6.549-.454-5.381-.38-4.899-2.291-4.658-3.247-4.177-5.156-4.097-5.561-4.058-5.763-3.979-6.167-3.906-5.753-3.869-5.546-3.796-5.131-3.519-3.829-3.38-3.178-3.103-1.876-3.413-1.729-3.568-1.656-3.878-1.509V-.268C-2.327-.166-1.551-.111 0 0" fill="#092041"/>
<path transform="matrix(1,0,0,-1,189.0253,55.187196)" d="M0 0C0-.589 .396-.869 1.056-.819 1.831-.761 2.443-.034 2.443 .571V1.144C2.227 1.175 1.981 1.188 1.618 1.16 .561 1.081 0 .728 0 0M5.249 3.294V.102C5.249-.241 5.462-.395 5.761-.372 5.841-.366 5.88-.363 5.959-.358V-1.923C5.546-2.032 5.132-2.124 4.736-2.154 3.781-2.226 3.152-1.965 2.79-1.139 2.77-1.11 2.76-1.095 2.74-1.066 2.095-2.045 1.171-2.471 .083-2.552-1.536-2.672-2.658-1.978-2.658-.35-2.658 1.092-1.536 2.24 1.303 2.454 1.75 2.487 2.08 2.497 2.443 2.477V3.082C2.443 3.904 1.932 4.221 1.074 4.157 .099 4.084-.792 3.786-1.633 3.322-1.878 3.96-2 4.28-2.245 4.919-1.221 5.537 .115 6.024 1.353 6.117 3.878 6.307 5.249 5.495 5.249 3.294" fill="#092041"/>
<path transform="matrix(1,0,0,-1,204.4778,49.498994)" d="M0 0C-.271-.191-.407-.286-.678-.477-1.78-3.195-2.331-4.556-3.433-7.279-4.375-9.53-4.986-10.488-6.998-10.636-7.759-10.692-8.353-10.642-8.798-10.583-8.686-9.811-8.629-9.426-8.517-8.654-8.253-8.666-7.808-8.695-7.379-8.663-6.884-8.627-6.52-8.383-6.289-7.654-6.244-7.514-6.221-7.444-6.175-7.303-7.158-4.795-7.65-3.542-8.633-1.036-8.917-.884-9.059-.807-9.344-.655V.602C-7.561 .735-6.669 .802-4.885 .928V-.312C-5.19-.501-5.342-.596-5.646-.786-5.243-2.102-5.042-2.761-4.639-4.078-4.567-4.401-4.531-4.563-4.458-4.887-4.438-4.885-4.428-4.885-4.408-4.883-4.315-4.548-4.269-4.38-4.177-4.045-3.747-2.676-3.532-1.991-3.103-.622-3.407-.469-3.56-.393-3.864-.24V1C-2.318 1.108-1.546 1.16 0 1.256 0 .754 0 .502 0 0" fill="#092041"/>
<path transform="matrix(1,0,0,-1,211.6602,48.245897)" d="M0 0V-2.094C-.653-2.132-.98-2.151-1.633-2.189-1.785-1.782-1.86-1.579-2.012-1.172-2.311-1.065-2.672-1.039-3.002-1.058-3.581-1.09-4.142-1.338-4.142-1.802-4.142-2.33-3.513-2.529-2.458-2.747-.861-3.077 .281-3.612 .281-5.177 .281-7.146-1.336-8.049-3.317-8.16-4.505-8.226-5.709-8.029-6.8-7.664V-5.617C-6.126-5.575-5.789-5.555-5.115-5.516-4.983-5.906-4.917-6.1-4.785-6.49-4.439-6.609-4.027-6.649-3.647-6.628-3.02-6.593-2.425-6.327-2.425-5.8-2.425-5.287-2.892-5.131-3.977-4.91-5.573-4.586-6.783-3.925-6.783-2.391-6.783-.5-5.099 .314-3.2 .42-2.029 .486-.907 .318 0 0" fill="#092041"/>
<path transform="matrix(1,0,0,-1,219.1414,49.983705)" d="M0 0V-3.07C.28-3.362 .808-3.684 1.501-3.638 2.492-3.574 3.086-2.837 3.086-1.332 3.086 .218 2.606 .914 1.6 .848 .94 .805 .361 .426 0 0M0 1.845C.577 2.456 1.402 2.897 2.458 2.967 4.424 3.096 6.057 1.904 6.057-1.01 6.057-3.77 4.868-5.449 2.113-5.63 .94-5.707 .115-5.202-.381-4.661-.499-5.046-.559-5.239-.678-5.625-1.53-5.68-1.956-5.707-2.808-5.76-2.808-1.996-2.808-.114-2.808 3.651-3.204 3.824-3.402 3.911-3.798 4.084-3.798 4.587-3.798 4.838-3.798 5.341-2.279 5.435-1.519 5.483 0 5.582 0 4.087 0 3.34 0 1.845" fill="#092041"/>
<path transform="matrix(1,0,0,-1,234.7088,47.567705)" d="M0 0C-.27-.193-.405-.289-.676-.481-1.779-3.205-2.33-4.566-3.433-7.29-4.373-9.541-4.983-10.499-6.998-10.636-7.756-10.688-8.35-10.634-8.797-10.573-8.685-9.802-8.629-9.416-8.517-8.646-8.253-8.659-7.806-8.691-7.377-8.662-6.882-8.628-6.519-8.386-6.288-7.658-6.241-7.518-6.218-7.448-6.171-7.308-7.155-4.795-7.648-3.539-8.632-1.026-8.915-.872-9.057-.795-9.341-.64V.616C-7.559 .737-6.668 .798-4.886 .92V-.321C-5.189-.509-5.34-.603-5.643-.792-5.241-2.11-5.04-2.769-4.637-4.087-4.564-4.411-4.528-4.572-4.455-4.896-4.435-4.895-4.426-4.894-4.406-4.893-4.314-4.558-4.268-4.39-4.175-4.055-3.746-2.686-3.532-2.002-3.103-.633-3.406-.48-3.558-.403-3.861-.25V.99C-2.316 1.097-1.544 1.15 0 1.256Z" fill="#092041"/>
<path transform="matrix(1,0,0,-1,246.8295,46.746095)" d="M0 0C-.271-.192-.407-.287-.678-.479-1.78-3.2-2.331-4.56-3.433-7.282-4.375-9.531-4.987-10.488-6.999-10.625-7.76-10.677-8.354-10.624-8.799-10.562-8.686-9.791-8.63-9.406-8.517-8.635-8.253-8.648-7.808-8.68-7.379-8.651-6.884-8.617-6.521-8.375-6.29-7.647-6.244-7.507-6.221-7.437-6.175-7.297-7.158-4.784-7.65-3.528-8.633-1.016-8.918-.862-9.06-.785-9.344-.631V.626C-7.561 .748-6.669 .809-4.886 .93V-.311C-5.19-.499-5.342-.593-5.647-.781-5.244-2.099-5.042-2.758-4.639-4.077-4.567-4.401-4.531-4.563-4.458-4.887-4.438-4.885-4.428-4.885-4.408-4.883-4.316-4.548-4.269-4.381-4.177-4.046-3.747-2.677-3.533-1.993-3.103-.625-3.407-.472-3.56-.395-3.864-.242V.999C-2.318 1.103-1.546 1.155 0 1.256Z" fill="#092041"/>
<path transform="matrix(1,0,0,-1,249.9848,49.395204)" d="M0 0C0-1.658 .744-2.277 1.717-2.216 2.658-2.157 3.433-1.443 3.433 .215 3.433 1.875 2.676 2.511 1.717 2.451 .744 2.39 0 1.644 0 0M6.404 .41C6.404-2.458 4.326-4.006 1.585-4.178-1.088-4.346-2.987-3.045-2.987-.193-2.987 2.723-.874 4.242 1.751 4.407 4.524 4.58 6.404 3.341 6.404 .41" fill="#092041"/>
<path transform="matrix(1,0,0,-1,265.8166,50.938997)" d="M0 0C.39-.155 .585-.232 .975-.387V-1.597C-.319-1.658-.966-1.691-2.26-1.757-2.386-1.367-2.449-1.172-2.575-.781-3.119-1.477-4.01-2.034-5.231-2.101-7.196-2.209-8.055-1.16-8.055 .515V4.374C-8.431 4.558-8.619 4.649-8.995 4.832V6.073C-7.496 6.161-6.746 6.204-5.247 6.286V1.215C-5.247 .409-4.983 .005-4.241 .045-3.631 .077-3.119 .462-2.804 .804V4.663C-3.188 4.848-3.38 4.941-3.763 5.125V6.366C-2.258 6.446-1.505 6.485 0 6.558 0 3.935 0 2.623 0 0" fill="#092041"/>
<path transform="matrix(1,0,0,-1,274.5176,43.993394)" d="M0 0C-.079-.952-.119-1.428-.198-2.379-.497-2.329-.81-2.31-1.122-2.321-1.915-2.352-2.625-2.629-3.054-3.281V-6.676C-2.467-6.832-2.172-6.91-1.585-7.067V-8.277C-3.685-8.358-4.735-8.403-6.835-8.501V-7.291C-6.445-7.087-6.25-6.985-5.86-6.781V-1.929C-6.25-1.78-6.445-1.705-6.835-1.555V-.299C-5.574-.24-4.943-.212-3.682-.16-3.536-.65-3.464-.895-3.319-1.385-3.305-1.385-3.299-1.384-3.285-1.384-2.757-.432-1.8 .087-.909 .121-.612 .132-.281 .098 0 0" fill="#092041"/>
<path transform="matrix(1,0,0,-1,284.6885,44.149995)" d="M0 0V-2.094C-.654-2.105-.981-2.112-1.635-2.126-1.787-1.713-1.863-1.507-2.015-1.095-2.311-.978-2.676-.939-3.006-.947-3.583-.96-4.144-1.192-4.144-1.656-4.144-2.184-3.515-2.401-2.46-2.654-.861-3.039 .28-3.623 .28-5.189 .28-7.158-1.338-7.991-3.319-8.039-4.507-8.067-5.713-7.837-6.8-7.437V-5.39C-6.128-5.37-5.791-5.36-5.119-5.341-4.986-5.735-4.92-5.931-4.788-6.325-4.441-6.454-4.027-6.506-3.649-6.497-3.021-6.481-2.427-6.235-2.427-5.708-2.427-5.196-2.893-5.022-3.979-4.769-5.577-4.397-6.785-3.699-6.785-2.165-6.785-.274-5.101 .492-3.204 .538-2.031 .566-.909 .356 0 0" fill="#092041"/>
<path transform="matrix(1,0,0,-1,289.6089,41.576997)" d="M0 0C0-.853-.709-1.275-1.699-1.286-2.641-1.296-3.383-.89-3.383-.037-3.383 .8-2.657 1.262-1.699 1.272-.726 1.283 0 .838 0 0M-.181-8.636C.208-8.813 .403-8.901 .792-9.079V-10.289C-1.109-10.299-2.06-10.31-3.961-10.34V-9.13C-3.572-8.944-3.376-8.851-2.987-8.666-2.987-6.713-2.987-5.736-2.987-3.783-3.376-3.621-3.572-3.54-3.961-3.379V-2.138C-2.449-2.114-1.693-2.105-.181-2.094Z" fill="#092041"/>
<path transform="matrix(1,0,0,-1,293.8517,47.7368)" d="M0 0C0-1.225 .38-2.262 1.569-2.269 2.245-2.273 2.773-1.938 3.072-1.616V1.486C2.773 1.814 2.245 2.222 1.553 2.226 .563 2.232 0 1.458 0 0M5.876-2.537C6.266-2.717 6.461-2.808 6.851-2.989V-4.199C5.478-4.171 4.791-4.161 3.418-4.146 3.352-3.742 3.319-3.54 3.253-3.136 2.823-3.674 1.949-4.316 .579-4.311-1.783-4.302-2.987-2.731-2.987-.05-2.987 2.834-1.27 4.271 .81 4.261 1.717 4.257 2.493 3.895 3.072 3.361V5.269C2.688 5.471 2.496 5.571 2.113 5.772V7.029C3.618 7.017 4.371 7.008 5.876 6.982Z" fill="#092041"/>
<path transform="matrix(1,0,0,-1,304.2383,47.0923)" d="M0 0C1.116-.033 1.674-.051 2.79-.093 2.773 .868 2.509 1.578 1.486 1.613 .297 1.652 0 .667 0 0M5.463-.591C5.463-.855 5.447-1.397 5.397-1.611 3.211-1.513 2.119-1.473-.066-1.409 0-2.387 .577-3.193 1.897-3.239 2.69-3.267 3.451-3.093 4.472-2.749 4.704-3.391 4.819-3.713 5.051-4.355 4.01-4.914 2.822-5.207 1.369-5.159-1.42-5.066-3.07-3.488-3.07-.821-3.07 1.829-1.338 3.506 1.435 3.413 4.01 3.327 5.463 1.998 5.463-.591" fill="#092041"/>
<path transform="matrix(1,0,0,-1,313.4035,51.189195)" d="M0 0C0-.791-.579-1.33-1.534-1.281-2.493-1.231-3.07-.631-3.07 .159-3.07 .997-2.459 1.511-1.534 1.463-.61 1.415 0 .838 0 0" fill="#092041"/>
<path transform="matrix(1,0,0,-1,303.1179,138.81189)" d="M0 0-.754-.319V-5.405H1.094L1.349-4.365H2.379V-6.786H-3.312V-5.925L-2.633-5.607V-.319L-3.312 0V.86H0Z" fill="#091f41"/>
<path transform="matrix(1,0,0,-1,309.4072,138.81189)" d="M0 0-.754-.319V-5.405H1.094L1.349-4.365H2.379V-6.786H-3.312V-5.925L-2.633-5.607V-.319L-3.312 0V.86H0Z" fill="#091f41"/>
<path transform="matrix(1,0,0,-1,318.6805,138.4937)" d="M0 0V-2.188H-1.178L-1.476-1.04C-1.826-.891-2.166-.828-2.517-.828-3.515-.828-4.269-1.518-4.269-3.292-4.269-4.81-3.611-5.564-2.602-5.564-1.816-5.564-1.126-5.256-.584-4.821L.181-6C-.627-6.796-1.689-7.221-2.846-7.221-5.119-7.221-6.255-5.554-6.255-3.302-6.255-.764-4.884 .68-2.761 .68-1.677 .68-.871 .468 0 0" fill="#091f41"/>
</g>
</g>
</svg>
